<svg width="42" height="42" viewBox="0 0 42 42" fill="none" xmlns="http://www.w3.org/2000/svg">
<path d="M10.3267 19.281C10.6956 16.4842 13.1678 13.9527 17.69 11.7467L18.5044 11.3495L15.1658 5.18564L14.4121 5.56766C4.84895 10.4153 0 17.2661 0 25.9301C0 28.9195 0.948937 31.5013 2.82064 33.6041C4.7186 35.7362 7.02188 36.8173 9.66697 36.8173C12.0437 36.8173 14.059 35.971 15.657 34.3016C17.2445 32.6429 18.0495 30.5827 18.0495 28.178C18.0495 25.9057 17.2364 23.8807 15.6328 22.1592C14.2184 20.6407 12.4362 19.6748 10.3267 19.281ZM14.4022 33.1005C13.127 34.4328 11.5781 35.0804 9.66697 35.0804C7.50914 35.0804 5.69412 34.2197 4.11821 32.4492C2.51582 30.6491 1.73685 28.5167 1.73685 25.93C1.73685 21.9591 2.85502 18.3741 5.0601 15.2747C7.16412 12.3176 10.3199 9.70679 14.4478 7.50638L16.1203 10.5942C11.0901 13.2302 8.5415 16.3989 8.5415 20.0216V20.7973L9.31219 20.8845C11.3882 21.1196 13.0398 21.9237 14.3619 23.343C15.6744 24.7521 16.3126 26.3338 16.3126 28.1779C16.3127 30.1473 15.6877 31.7574 14.4022 33.1005Z" fill="#8643DC"/>
<path d="M33.8958 19.2835C34.2603 16.4844 36.7122 13.9516 41.1981 11.7454L42 11.3511L38.7443 5.1828L37.9832 5.56687C28.3763 10.4143 23.5053 17.2654 23.5053 25.9301C23.5053 28.9213 24.4664 31.5046 26.3617 33.6079C28.2807 35.7374 30.5935 36.8172 33.2364 36.8172C35.6161 36.8172 37.6222 35.9692 39.1989 34.2968C40.7621 32.6387 41.5547 30.5801 41.5547 28.1779C41.5547 25.9055 40.7416 23.8805 39.1382 22.1591C37.7267 20.6439 35.9659 19.6788 33.8958 19.2835ZM37.9353 33.1053C36.6821 34.4343 35.1452 35.0804 33.2364 35.0804C31.0765 35.0804 29.2498 34.2185 27.652 32.4453C26.0303 30.6457 25.2421 28.5146 25.2421 25.9301C25.2421 21.9598 26.3653 18.3754 28.5802 15.2763C30.6936 12.3198 33.8629 9.70945 38.0084 7.50929L39.6355 10.5924C34.6416 13.2292 32.1112 16.3986 32.1112 20.0216V20.7956L32.8799 20.8843C34.9133 21.119 36.5446 21.9232 37.8673 23.343C39.1799 24.7521 39.8179 26.3336 39.8179 28.178C39.818 30.1498 39.2021 31.7617 37.9353 33.1053Z" fill="#8643DC"/>
</svg>
