<svg width="146" height="23" viewBox="0 0 146 23" fill="none" xmlns="http://www.w3.org/2000/svg">
<path d="M1.704 17.328V0.528002H14.088V2.736H4.224V7.776H10.704V9.936H4.224V15.12H14.184V17.328H1.704ZM15.0246 17.328L19.7766 11.064L15.2166 5.112H18.0246L21.1686 9.312L24.3126 5.112H27.0246L22.5126 11.04L27.3366 17.328H24.5046L21.1446 12.816L17.7366 17.328H15.0246ZM28.791 22.296V5.112H31.167V6.288C31.663 5.84 32.231 5.504 32.871 5.28C33.511 5.04 34.191 4.92 34.911 4.92C35.775 4.92 36.583 5.088 37.335 5.424C38.087 5.744 38.735 6.184 39.279 6.744C39.839 7.304 40.279 7.968 40.599 8.736C40.919 9.504 41.079 10.328 41.079 11.208C41.079 12.088 40.919 12.92 40.599 13.704C40.279 14.472 39.839 15.136 39.279 15.696C38.735 16.256 38.079 16.704 37.311 17.04C36.543 17.36 35.727 17.52 34.863 17.52C34.191 17.52 33.535 17.416 32.895 17.208C32.271 17 31.703 16.704 31.191 16.32V22.296H28.791ZM34.599 7.008C33.911 7.008 33.271 7.136 32.679 7.392C32.087 7.648 31.591 8.008 31.191 8.472V13.992C31.575 14.44 32.063 14.792 32.655 15.048C33.263 15.304 33.911 15.432 34.599 15.432C35.767 15.432 36.743 15.032 37.527 14.232C38.327 13.432 38.727 12.432 38.727 11.232C38.727 10.032 38.327 9.032 37.527 8.232C36.727 7.416 35.751 7.008 34.599 7.008ZM45.7691 1.43051e-06V17.328H43.3691V0.528002L45.7691 1.43051e-06ZM48.0437 11.208C48.0437 10.328 48.2037 9.504 48.5237 8.736C48.8597 7.952 49.3157 7.28 49.8917 6.72C50.4677 6.144 51.1397 5.696 51.9077 5.376C52.6917 5.04 53.5237 4.872 54.4037 4.872C55.2837 4.872 56.1077 5.04 56.8757 5.376C57.6597 5.696 58.3317 6.144 58.8917 6.72C59.4677 7.28 59.9157 7.952 60.2357 8.736C60.5717 9.504 60.7397 10.328 60.7397 11.208C60.7397 12.104 60.5717 12.944 60.2357 13.728C59.9157 14.496 59.4677 15.168 58.8917 15.744C58.3317 16.304 57.6597 16.752 56.8757 17.088C56.1077 17.408 55.2837 17.568 54.4037 17.568C53.5237 17.568 52.6917 17.408 51.9077 17.088C51.1397 16.752 50.4677 16.304 49.8917 15.744C49.3157 15.168 48.8597 14.496 48.5237 13.728C48.2037 12.944 48.0437 12.104 48.0437 11.208ZM54.4037 15.456C55.5077 15.456 56.4437 15.048 57.2117 14.232C57.9957 13.4 58.3877 12.392 58.3877 11.208C58.3877 10.024 57.9957 9.024 57.2117 8.208C56.4437 7.392 55.5077 6.984 54.4037 6.984C53.2997 6.984 52.3557 7.392 51.5717 8.208C50.7877 9.024 50.3957 10.024 50.3957 11.208C50.3957 12.392 50.7797 13.4 51.5477 14.232C52.3317 15.048 53.2837 15.456 54.4037 15.456ZM63.0098 17.328V5.112H65.4098V6.672C65.7778 6.08 66.2498 5.632 66.8258 5.328C67.4018 5.008 68.0498 4.848 68.7698 4.848C69.0258 4.848 69.2498 4.864 69.4418 4.896C69.6338 4.928 69.8178 4.976 69.9938 5.04V7.2C69.7698 7.12 69.5378 7.056 69.2978 7.008C69.0578 6.96 68.8178 6.936 68.5778 6.936C67.8738 6.936 67.2418 7.128 66.6818 7.512C66.1378 7.88 65.7138 8.432 65.4098 9.168V17.328H63.0098ZM81.75 15.936C81.046 16.48 80.31 16.888 79.542 17.16C78.774 17.416 77.934 17.544 77.022 17.544C76.126 17.544 75.286 17.384 74.502 17.064C73.718 16.728 73.038 16.28 72.462 15.72C71.886 15.16 71.43 14.496 71.094 13.728C70.774 12.944 70.614 12.104 70.614 11.208C70.614 10.328 70.774 9.504 71.094 8.736C71.414 7.968 71.846 7.304 72.39 6.744C72.934 6.184 73.582 5.744 74.334 5.424C75.086 5.088 75.886 4.92 76.734 4.92C77.566 4.92 78.342 5.088 79.062 5.424C79.798 5.744 80.422 6.192 80.934 6.768C81.462 7.328 81.878 8 82.182 8.784C82.486 9.568 82.638 10.408 82.638 11.304V12H72.99C73.15 13.008 73.614 13.848 74.382 14.52C75.15 15.176 76.062 15.504 77.118 15.504C77.71 15.504 78.278 15.408 78.822 15.216C79.366 15.024 79.83 14.76 80.214 14.424L81.75 15.936ZM76.686 6.936C75.774 6.936 74.974 7.24 74.286 7.848C73.614 8.456 73.19 9.24 73.014 10.2H80.262C80.086 9.272 79.662 8.496 78.99 7.872C78.334 7.248 77.566 6.936 76.686 6.936ZM98.8434 16.128L92.5794 3.648V17.328H90.2274V0.528002H93.5874L98.8674 11.256L104.123 0.528002H107.483V17.328H105.107V3.624L98.8434 16.128ZM110.059 11.208C110.059 10.328 110.219 9.504 110.539 8.736C110.875 7.952 111.331 7.28 111.907 6.72C112.483 6.144 113.155 5.696 113.923 5.376C114.707 5.04 115.539 4.872 116.419 4.872C117.299 4.872 118.123 5.04 118.891 5.376C119.675 5.696 120.347 6.144 120.907 6.72C121.483 7.28 121.931 7.952 122.251 8.736C122.587 9.504 122.755 10.328 122.755 11.208C122.755 12.104 122.587 12.944 122.251 13.728C121.931 14.496 121.483 15.168 120.907 15.744C120.347 16.304 119.675 16.752 118.891 17.088C118.123 17.408 117.299 17.568 116.419 17.568C115.539 17.568 114.707 17.408 113.923 17.088C113.155 16.752 112.483 16.304 111.907 15.744C111.331 15.168 110.875 14.496 110.539 13.728C110.219 12.944 110.059 12.104 110.059 11.208ZM116.419 15.456C117.523 15.456 118.459 15.048 119.227 14.232C120.011 13.4 120.403 12.392 120.403 11.208C120.403 10.024 120.011 9.024 119.227 8.208C118.459 7.392 117.523 6.984 116.419 6.984C115.315 6.984 114.371 7.392 113.587 8.208C112.803 9.024 112.411 10.024 112.411 11.208C112.411 12.392 112.795 13.4 113.563 14.232C114.347 15.048 115.299 15.456 116.419 15.456ZM125.025 17.328V5.112H127.425V6.672C127.793 6.08 128.265 5.632 128.841 5.328C129.417 5.008 130.065 4.848 130.785 4.848C131.041 4.848 131.265 4.864 131.457 4.896C131.649 4.928 131.833 4.976 132.009 5.04V7.2C131.785 7.12 131.553 7.056 131.313 7.008C131.073 6.96 130.833 6.936 130.593 6.936C129.889 6.936 129.257 7.128 128.697 7.512C128.153 7.88 127.729 8.432 127.425 9.168V17.328H125.025ZM143.766 15.936C143.062 16.48 142.326 16.888 141.558 17.16C140.79 17.416 139.95 17.544 139.038 17.544C138.142 17.544 137.302 17.384 136.518 17.064C135.734 16.728 135.054 16.28 134.478 15.72C133.902 15.16 133.446 14.496 133.11 13.728C132.79 12.944 132.63 12.104 132.63 11.208C132.63 10.328 132.79 9.504 133.11 8.736C133.43 7.968 133.862 7.304 134.406 6.744C134.95 6.184 135.598 5.744 136.35 5.424C137.102 5.088 137.902 4.92 138.75 4.92C139.582 4.92 140.358 5.088 141.078 5.424C141.814 5.744 142.438 6.192 142.95 6.768C143.478 7.328 143.894 8 144.198 8.784C144.502 9.568 144.654 10.408 144.654 11.304V12H135.006C135.166 13.008 135.63 13.848 136.398 14.52C137.166 15.176 138.078 15.504 139.134 15.504C139.726 15.504 140.294 15.408 140.838 15.216C141.382 15.024 141.846 14.76 142.23 14.424L143.766 15.936ZM138.702 6.936C137.79 6.936 136.99 7.24 136.302 7.848C135.63 8.456 135.206 9.24 135.03 10.2H142.278C142.102 9.272 141.678 8.496 141.006 7.872C140.35 7.248 139.582 6.936 138.702 6.936Z" fill="#25202F"/>
<path d="M0 20.328H145.518V21.528H0V20.328Z" fill="#25202F"/>
</svg>
